<?xml version="1.0" standalone="no"?>
<!DOCTYPE svg PUBLIC "-//W3C//DTD SVG 20010904//EN"
 "http://www.w3.org/TR/2001/REC-SVG-20010904/DTD/svg10.dtd">
<svg version="1.0" xmlns="http://www.w3.org/2000/svg"
 width="512.000000pt" height="512.000000pt" viewBox="0 0 512.000000 512.000000"
 preserveAspectRatio="xMidYMid meet">

<circle cx="256" cy="256" r="232" fill="#ffffff"/>
<g transform="translate(0.000000,512.000000) scale(0.100000,-0.100000)"
fill="#000000" stroke="none">
<path d="M2440 4903 c-468 -36 -821 -153 -1182 -391 -476 -314 -832 -816 -973
-1371 -136 -536 -75 -1111 170 -1616 109 -223 256 -430 438 -614 194 -196 380
-331 622 -451 340 -168 655 -241 1040 -242 381 0 693 71 1030 237 857 421
1377 1304 1315 2233 -12 185 -38 342 -81 497 -259 921 -1044 1595 -1984 1704
-102 11 -327 20 -395 14z m-606 -201 c2 -4 -22 -40 -55 -80 -42 -50 -106 -107
-217 -190 -227 -171 -600 -436 -647 -460 -78 -39 -165 -70 -170 -61 -9 13 104
148 221 264 213 213 471 381 769 501 90 37 92 37 99 26z m1542 -23 c206 -63
552 -293 782 -518 86 -84 202 -227 202 -249 0 -5 -42 8 -93 30 -93 39 -300
181 -672 457 -137 102 -267 218 -307 274 -19 27 -19 27 0 27 11 0 51 -9 88
-21z m-1211 -335 c175 -58 327 -112 337 -121 17 -15 18 -43 18 -380 0 -288 -3
-371 -14 -397 -16 -38 -28 -48 -435 -345 -258 -188 -308 -221 -338 -221 -47 0
-712 219 -735 242 -17 17 -18 44 -18 388 0 310 2 376 15 400 9 18 104 94 252
202 388 284 477 346 503 350 35 5 55 -1 415 -118z m1231 107 c24 -15 413 -296
688 -498 14 -10 30 -29 36 -43 7 -17 9 -155 8 -410 l-3 -385 -205 -68 c-558
-185 -544 -182 -590 -150 -52 35 -460 331 -581 419 -69 51 -131 105 -137 119
-18 38 -17 765 1 787 6 9 104 47 217 83 113 37 270 89 350 115 80 26 154 48
165 49 11 0 34 -8 51 -18z m-2157 -1507 c146 -47 308 -99 359 -116 51 -16 101
-37 112 -48 27 -27 290 -830 290 -887 0 -23 -40 -85 -181 -279 -265 -364 -265
-364 -298 -364 -15 0 -54 9 -87 19 -32 11 -185 60 -339 110 -154 50 -290 97
-302 106 -17 12 -48 96 -137 368 -171 526 -167 513 -156 543 10 26 67 108 200
289 37 50 106 144 155 210 80 108 102 134 114 135 2 0 123 -39 270 -86z m2920
76 c18 -9 106 -127 355 -473 60 -84 106 -158 106 -171 0 -23 -29 -117 -188
-606 -61 -188 -92 -270 -108 -284 -12 -11 -75 -37 -141 -57 -65 -20 -225 -71
-356 -114 -131 -42 -244 -74 -251 -72 -7 3 -115 144 -239 314 -172 234 -227
315 -227 337 0 16 40 151 89 300 49 149 110 338 136 420 26 81 55 156 65 166
10 10 112 48 227 85 114 36 273 88 353 115 166 55 156 53 179 40z m-3802 -563
c43 -69 66 -127 146 -367 173 -518 209 -645 215 -745 l4 -90 -37 35 c-177 168
-394 821 -395 1188 0 34 3 62 8 62 4 -1 30 -38 59 -83z m4452 -79 c-16 -358
-137 -725 -342 -1045 -42 -65 -77 -93 -77 -62 0 71 42 254 101 442 88 281 197
603 216 642 23 46 97 165 103 165 3 0 2 -64 -1 -142z m-1799 -551 c36 -12 83
-71 285 -353 39 -54 98 -136 133 -183 34 -47 62 -95 62 -106 0 -12 -41 -77
-91 -146 -50 -68 -150 -206 -221 -307 -81 -113 -140 -187 -155 -193 -13 -5
-219 -9 -459 -9 -343 0 -441 3 -467 14 -25 10 -79 78 -238 297 -113 156 -214
297 -224 312 -22 35 -19 43 72 167 38 52 129 176 201 275 180 249 160 229 228
236 114 12 837 9 874 -4z m75 -1386 c149 -32 153 -35 65 -61 -237 -71 -534
-102 -772 -81 -216 19 -488 78 -488 105 0 7 34 19 88 29 48 9 96 18 107 21 11
2 220 4 465 5 400 1 454 -1 535 -18z"/>
</g>
</svg>
